<svg width="38" height="38" viewBox="0 0 38 38" fill="none" xmlns="http://www.w3.org/2000/svg">
<path d="M19 1.52607C28.6139 1.52607 36.4739 9.38612 36.4739 19C36.4739 28.6139 28.6139 36.4739 19 36.4739C9.38612 36.4739 1.52607 28.6139 1.52607 19C1.52607 9.38612 9.38612 1.52607 19 1.52607ZM19 0C8.46933 0 0 8.46933 0 19C0 29.5307 8.54525 38 19 38C29.4528 38 38 29.5307 38 19C38 8.46933 29.5307 0 19 0Z" fill="white"/>
<path d="M18.0851 9.00452H19.6112V28.8435H18.0851V9.00452Z" fill="white"/>
<path d="M8.85085 18.3128H28.538V19.8389H8.85085V18.3128Z" fill="white"/>
</svg>
