<svg width="24" height="25" viewBox="0 0 24 25" fill="none" xmlns="http://www.w3.org/2000/svg">
<path d="M3 20.8962H21V13.6582C21 12.1384 20.085 11.1152 18.705 11.1152H5.295C3.915 11.1152 3 12.1384 3 13.6582V20.8962ZM2.67 24.6581H21.33C22.905 24.6581 23.685 23.9057 24 22.4009H0C0.315 23.9057 1.095 24.6581 2.67 24.6581ZM5.295 12.6199H18.705C19.185 12.6199 19.5 13.0413 19.5 13.6582V15.8702C19.5 15.8702 18.75 16.6979 17.715 16.6979C16.68 16.6979 16.335 15.8552 15.225 15.8552C13.875 15.8552 13.575 17.1342 12 17.1342C10.425 17.1342 10.125 15.8552 8.775 15.8552C7.68 15.8552 7.32 16.6979 6.285 16.6979C5.25 16.6979 4.5 15.8702 4.5 15.8702V13.6582C4.5 13.0413 4.815 12.6199 5.295 12.6199ZM11.25 12.0782H12.75V9.8963C12.75 8.82792 12.75 8.82792 12 8.82792C11.25 8.82792 11.25 8.82792 11.25 9.8963V12.0782ZM10.95 7.71439C10.95 7.09743 12 5.57762 12 5.57762C12 5.57762 13.035 7.09743 13.035 7.71439C13.035 8.46677 12.525 8.85801 12 8.85801C11.43 8.85801 10.95 8.46677 10.95 7.71439ZM9.105 6.91686C9.105 8.67744 10.335 9.98659 11.985 9.98659C13.62 9.98659 14.88 8.67744 14.88 6.91686C14.88 5.11114 11.985 0.581787 11.985 0.581787C11.985 0.581787 9.105 5.11114 9.105 6.91686Z" fill="#28B0A6"/>
</svg>
