<svg width="17" height="16" viewBox="0 0 17 16" fill="none" xmlns="http://www.w3.org/2000/svg">
<path fill-rule="evenodd" clip-rule="evenodd" d="M10.2627 8.00027L15.5314 2.73129C16.1564 2.10727 16.1564 1.0927 15.5314 0.468914C14.9065 -0.156305 13.8941 -0.156305 13.2691 0.468914L8.00009 5.73765L2.73111 0.468914C2.10613 -0.156305 1.09371 -0.156305 0.468734 0.468914C-0.156245 1.09293 -0.156245 2.10751 0.468734 2.73129L5.73771 8.00027L0.468734 13.269C-0.156245 13.8933 -0.156245 14.9078 0.468734 15.5316C0.781463 15.8444 1.19093 16 1.60064 16C2.01035 16 2.41982 15.8444 2.73231 15.5316L8.00129 10.2626L13.2703 15.5316C13.5828 15.8444 13.9922 16 14.4019 16C14.8119 16 15.2211 15.8444 15.5338 15.5316C16.1588 14.9074 16.1588 13.8928 15.5338 13.269L10.2627 8.00027Z" fill="#FA3E2C"/>
</svg>
