<svg width="18" height="25" viewBox="0 0 18 25" fill="none" xmlns="http://www.w3.org/2000/svg">
<path d="M15.9048 8.01489H11.7778V8.98832H15.9048C16.5079 8.98832 17.0159 9.50749 17.0159 10.124V22.8436C17.0159 23.4601 16.5079 23.9793 15.9048 23.9793H2.06349C1.46032 23.9793 0.952381 23.4601 0.952381 22.8436V10.124C0.952381 9.50749 1.46032 8.98832 2.06349 8.98832H5.87302V8.01489H2.06349C0.920635 8.01489 0 8.95588 0 10.124V22.8436C0 24.0117 0.920635 24.9527 2.06349 24.9527H15.9365C17.0794 24.9527 18 24.0117 18 22.8436V10.124C17.9683 8.95588 17.0476 8.01489 15.9048 8.01489ZM8.50794 2.72587V16.4838H9.46032V2.72587L11.5556 4.86744L12.2222 4.18603L8.98413 0.876343L5.71429 4.18603L6.38095 4.86744L8.50794 2.72587Z" fill="#546179"/>
</svg>
