<svg width="43" height="38" viewBox="0 0 43 38" fill="none" xmlns="http://www.w3.org/2000/svg">
<path d="M43 0.442323C43 0.425515 42.992 0.41136 42.9902 0.395437C42.9884 0.379513 42.9929 0.363589 42.9893 0.347666C42.9866 0.333512 42.9768 0.323781 42.9724 0.310511C42.9634 0.281318 42.9519 0.254778 42.9367 0.229123C42.9224 0.204353 42.9082 0.181352 42.8894 0.160121C42.8707 0.138889 42.8511 0.120311 42.8297 0.102618C42.8074 0.0849254 42.7851 0.0698872 42.7601 0.0566175C42.7352 0.0433478 42.7084 0.033616 42.6808 0.0256542C42.6531 0.0168077 42.6246 0.0114998 42.5952 0.00884583C42.5809 0.00707653 42.5684 0 42.5533 0C42.5354 0 42.5212 0.00796154 42.5042 0.00973083C42.4882 0.0115001 42.473 0.00707725 42.457 0.0106158L28.5187 3.04053L14.5768 0.0106158C14.575 0.0106158 14.5723 0.0106158 14.5705 0.0106158C14.5545 0.00707725 14.5375 0.00973096 14.5206 0.00796167C14.5072 0.00707702 14.4956 0 14.4813 0C14.468 0 14.4564 0.00619237 14.4439 0.00796167C14.4261 0.00884631 14.4073 0.00707725 14.3904 0.0106158C14.3886 0.0106158 14.3877 0.0106158 14.3859 0.0106158L0.351312 3.06176C0.337937 3.06442 0.327237 3.07415 0.313862 3.07769C0.284438 3.08742 0.257688 3.09892 0.230047 3.11484C0.205972 3.12811 0.183681 3.14226 0.162281 3.15996C0.13999 3.17854 0.121265 3.19888 0.103432 3.22188C0.0855989 3.244 0.0704408 3.26523 0.057066 3.29C0.0436911 3.31477 0.0347747 3.34043 0.0258582 3.36785C0.0169417 3.39616 0.0107005 3.42358 0.00802558 3.45455C0.00713392 3.4687 0 3.4802 0 3.49435V37.5577C0 37.5754 0.00802545 37.5886 0.00980876 37.6054C0.0115921 37.6223 0.00891648 37.6355 0.0124831 37.6523C0.0160497 37.6683 0.0249667 37.6798 0.0303166 37.6948C0.0374498 37.716 0.0454749 37.7373 0.0561748 37.7567C0.0713329 37.7859 0.0891659 37.8125 0.110566 37.8363C0.12394 37.8531 0.136423 37.8691 0.152473 37.8832C0.178331 37.9062 0.207756 37.9239 0.238964 37.9407C0.255905 37.9496 0.270171 37.9602 0.288004 37.9673C0.338828 37.9867 0.392328 37.9991 0.448502 37.9991C0.47971 37.9991 0.511809 37.9956 0.543017 37.9885L14.4822 34.9595L28.4224 37.9894C28.4545 37.9965 28.4866 38 28.5178 38C28.5231 38 28.5276 37.9973 28.532 37.9973C28.5588 37.9965 28.5864 37.9947 28.6141 37.9885L42.6496 34.9391C42.6638 34.9365 42.6737 34.9267 42.687 34.9223C42.7156 34.9126 42.7423 34.902 42.7691 34.8869C42.794 34.8728 42.8172 34.8586 42.8386 34.84C42.86 34.8215 42.8778 34.802 42.8948 34.7808C42.9135 34.7587 42.9296 34.7357 42.9438 34.71C42.9563 34.6861 42.9652 34.6613 42.9733 34.6348C42.9831 34.6056 42.9893 34.5773 42.992 34.5463C42.9929 34.5322 43 34.5207 43 34.5065V0.442323ZM0.894329 3.84998L14.0373 0.992573V17.577C13.9365 17.5912 13.8394 17.6328 13.7653 17.7133C13.6004 17.8946 13.6147 18.1742 13.7975 18.3378C13.8795 18.4113 13.9553 18.4891 14.0373 18.5634V34.1518L0.894329 37.0083V3.84998ZM14.929 19.4127C15.2045 19.686 15.4729 19.9567 15.7145 20.2053C15.8019 20.2964 15.9187 20.3407 16.0355 20.3407C16.147 20.3407 16.2584 20.2991 16.3449 20.2168C16.5223 20.047 16.5277 19.7665 16.3565 19.5914C15.933 19.1553 15.4399 18.6678 14.929 18.1839V0.992573L28.0728 3.8491V25.0656C27.8142 25.1753 27.5557 25.2744 27.2971 25.3496C27.0608 25.4177 26.9253 25.6627 26.9948 25.898C27.051 26.0909 27.2293 26.2156 27.4219 26.2156C27.4629 26.2156 27.5057 26.2094 27.5476 26.197C27.7224 26.1457 27.8981 26.0838 28.0728 26.0192V37.0074L14.929 34.1509V19.4127ZM28.9645 25.6282C29.3479 25.4327 29.7277 25.2098 30.1022 24.9497C30.3046 24.809 30.3537 24.533 30.2128 24.334C30.071 24.1314 29.791 24.0863 29.5922 24.2243C29.3845 24.3685 29.174 24.4994 28.9645 24.6215V3.84998L42.1083 0.992573V34.1518L28.9645 37.0074V25.6282Z" fill="#99A3AD"/>
<path d="M5.45246 26.4837C5.40966 26.2616 5.34992 25.9361 5.28483 25.5176C5.24738 25.277 5.02358 25.1125 4.77659 25.1479C4.53317 25.185 4.36643 25.4106 4.40388 25.6521C4.45916 26.0042 4.50909 26.2864 4.551 26.5093C3.49439 26.7491 2.7026 27.6859 2.7026 28.8059C2.7026 30.1063 3.76902 31.1643 5.08064 31.1643C6.39227 31.1643 7.45868 30.1063 7.45868 28.8059C7.45779 27.6319 6.58575 26.6633 5.45246 26.4837ZM5.07975 30.2797C4.26032 30.2797 3.59337 29.6189 3.59337 28.8059C3.59337 27.9929 4.26032 27.3312 5.07975 27.3312C5.89918 27.3312 6.56614 27.9929 6.56614 28.8059C6.56614 29.6189 5.89918 30.2797 5.07975 30.2797Z" fill="#99A3AD"/>
<path d="M38.2181 6.80028L39.2693 5.75728C39.4432 5.58477 39.4432 5.30434 39.2693 5.13184C39.0954 4.95933 38.8128 4.95933 38.6389 5.13184L37.5877 6.17483L36.5373 5.13184C36.3634 4.95933 36.0808 4.95933 35.9069 5.13184C35.733 5.30434 35.733 5.58477 35.9069 5.75728L36.9582 6.80028L35.9069 7.84328C35.733 8.01578 35.733 8.29622 35.9069 8.46872C35.9943 8.55542 36.1084 8.59788 36.2225 8.59788C36.3367 8.59788 36.4508 8.55453 36.5382 8.46872L37.1989 7.81232C37.2034 7.91759 37.2078 8.01578 37.2105 8.13521C37.2167 8.37584 37.4147 8.56692 37.6563 8.56692C37.6599 8.56692 37.6635 8.56692 37.6679 8.56692C37.9131 8.56073 38.1084 8.35814 38.1021 8.11398C38.1004 8.04586 38.0977 7.99278 38.0959 7.92909L38.638 8.46784C38.7254 8.55453 38.8395 8.597 38.9537 8.597C39.0678 8.597 39.1819 8.55365 39.2693 8.46784C39.4432 8.29533 39.4432 8.0149 39.2693 7.84239L38.2181 6.80028Z" fill="#99A3AD"/>
<path d="M12.1782 15.9918C11.2785 15.4424 10.4136 15.0912 9.53356 14.9187C9.29192 14.87 9.05742 15.0266 9.01016 15.2663C8.96201 15.5061 9.11894 15.7387 9.36058 15.7856C10.1345 15.9378 10.9031 16.2518 11.7119 16.7446C11.785 16.7888 11.8652 16.8101 11.9446 16.8101C12.0944 16.8101 12.2406 16.7357 12.3244 16.5995C12.4537 16.3916 12.3877 16.12 12.1782 15.9918Z" fill="#99A3AD"/>
<path d="M4.551 23.3476C4.55992 23.3476 4.56973 23.3476 4.57864 23.3467C4.82385 23.3317 5.01109 23.122 4.99683 22.8787C4.97008 22.4453 4.95492 21.9967 4.95492 21.5438C4.95492 21.1112 4.96919 20.6751 5.00307 20.2443C5.02179 20.001 4.839 19.7878 4.5938 19.7692C4.34949 19.7374 4.13371 19.9329 4.11409 20.1753C4.07842 20.6282 4.06327 21.0882 4.06327 21.5438C4.06327 22.0135 4.07932 22.4815 4.10696 22.9318C4.12122 23.1671 4.31739 23.3476 4.551 23.3476Z" fill="#99A3AD"/>
<path d="M4.93976 17.9893C4.99237 18.0088 5.04676 18.0185 5.10026 18.0185C5.27948 18.0185 5.448 17.9106 5.51666 17.7354C5.85638 16.8587 6.35125 16.2572 6.98611 15.9475C7.20724 15.8396 7.29819 15.5742 7.1894 15.3557C7.07973 15.1363 6.81223 15.047 6.59289 15.154C5.74938 15.5654 5.10739 16.3279 4.68475 17.4187C4.59558 17.646 4.70971 17.9017 4.93976 17.9893Z" fill="#99A3AD"/>
<path d="M18.2406 21.5296C18.0685 21.3571 17.7858 21.3545 17.6102 21.5261C17.4354 21.6977 17.4336 21.9782 17.6066 22.1516C18.3806 22.9292 19.0217 23.5228 19.6244 24.0199C19.7073 24.0889 19.809 24.1225 19.9088 24.1225C20.0372 24.1225 20.1639 24.0677 20.2521 23.9633C20.41 23.7749 20.3841 23.4962 20.1951 23.3405C19.6155 22.8619 18.994 22.2869 18.2406 21.5296Z" fill="#99A3AD"/>
<path d="M37.6287 10.4185C37.3826 10.3981 37.1686 10.583 37.1507 10.8272C37.0812 11.7702 36.9608 12.6496 36.7941 13.4396C36.7433 13.6784 36.8975 13.9128 37.1392 13.9633C37.1695 13.9695 37.2007 13.973 37.2319 13.973C37.4379 13.973 37.6224 13.8297 37.667 13.6218C37.8418 12.7938 37.9684 11.8755 38.0415 10.8935C38.0576 10.6485 37.8739 10.4362 37.6287 10.4185Z" fill="#99A3AD"/>
<path d="M36.5837 15.6901C36.3625 15.5848 36.0959 15.6786 35.9898 15.8989C35.939 16.0041 35.8864 16.1076 35.8302 16.2103C35.5235 16.7711 35.1436 17.4673 34.6916 18.2255C34.5658 18.436 34.6363 18.7067 34.8485 18.8315C34.9198 18.8731 34.9983 18.8934 35.0759 18.8934C35.2283 18.8934 35.3764 18.8155 35.4602 18.6758C35.9185 17.9061 36.3046 17.2002 36.6149 16.6314C36.6773 16.5164 36.7379 16.3987 36.795 16.2802C36.9011 16.059 36.8066 15.7954 36.5837 15.6901Z" fill="#99A3AD"/>
<path d="M33.2364 20.4592C32.6827 21.2262 32.1183 21.9154 31.5592 22.5063C31.3916 22.6841 31.4005 22.9645 31.5797 23.1317C31.6662 23.2114 31.775 23.2512 31.8846 23.2512C32.0032 23.2512 32.1227 23.2043 32.2101 23.1114C32.795 22.4913 33.3844 21.772 33.9604 20.9741C34.104 20.775 34.0576 20.499 33.8579 20.3575C33.659 20.2159 33.38 20.2584 33.2364 20.4592Z" fill="#99A3AD"/>
<path d="M24.7915 25.553C23.998 25.4548 23.1839 25.2018 22.3743 24.7993C22.3555 24.7896 22.3386 24.7807 22.3217 24.7754C22.097 24.6834 21.8339 24.794 21.743 25.0213C21.6565 25.2345 21.7501 25.4761 21.9525 25.5787C21.9579 25.5822 21.9641 25.5849 21.9703 25.5884C22.8736 26.0369 23.7858 26.32 24.6819 26.4306C24.7006 26.4332 24.7193 26.4341 24.738 26.4341C24.9592 26.4341 25.1518 26.2696 25.1794 26.0467C25.2097 25.8043 25.0367 25.5831 24.7915 25.553Z" fill="#99A3AD"/>
</svg>
