<svg width="24" height="17" viewBox="0 0 24 17" fill="none" xmlns="http://www.w3.org/2000/svg">
<path d="M16.8326 10.225C15.2036 10.225 13.9004 10.653 12.923 11.188C14.4434 12.4721 15.095 13.9701 15.2036 14.0771L15.3122 14.2911V16.6453H24V14.5052C23.8914 14.5052 22.1538 10.225 16.8326 10.225Z" fill="#28B0A6"/>
<path d="M16.8326 8.08485C18.9318 8.08485 20.6336 6.40807 20.6336 4.33966C20.6336 2.27126 18.9318 0.594482 16.8326 0.594482C14.7334 0.594482 13.0317 2.27126 13.0317 4.33966C13.0317 6.40807 14.7334 8.08485 16.8326 8.08485Z" fill="#28B0A6"/>
<path d="M3.25793 4.33966C3.25793 2.30657 4.99549 0.594482 7.05885 0.594482C9.1222 0.594482 10.8598 2.30657 10.8598 4.33966C10.8598 6.37276 9.1222 8.08485 7.05885 8.08485C4.99549 8.08485 3.25793 6.37276 3.25793 4.33966ZM7.05885 10.225C1.73756 10.225 0 14.5052 0 14.5052V16.6453H14.1177V14.5052C14.1177 14.5052 12.3801 10.225 7.05885 10.225Z" fill="#28B0A6"/>
</svg>
