<svg width="16" height="18" viewBox="0 0 16 18" fill="none" xmlns="http://www.w3.org/2000/svg">
<path d="M1.02643 10.049H12.4994L7.48443 15.194C7.29082 15.3957 7.1827 15.6644 7.1827 15.944C7.1827 16.2236 7.29082 16.4923 7.48443 16.694C7.57782 16.792 7.69015 16.8701 7.8146 16.9234C7.93905 16.9767 8.07304 17.0042 8.20843 17.0042C8.34382 17.0042 8.47781 16.9767 8.60226 16.9234C8.72671 16.8701 8.83904 16.792 8.93243 16.694L15.6994 9.74301C15.8922 9.54351 15.9999 9.27693 15.9999 8.99951C15.9999 8.72209 15.8922 8.45552 15.6994 8.25601L8.93243 1.30801C8.83904 1.20999 8.72671 1.13195 8.60226 1.07863C8.47781 1.0253 8.34382 0.997812 8.20843 0.997812C8.07304 0.997812 7.93905 1.0253 7.8146 1.07863C7.69015 1.13195 7.57782 1.20999 7.48443 1.30801C7.29166 1.50752 7.18391 1.77409 7.18391 2.05151C7.18391 2.32893 7.29166 2.59551 7.48443 2.79501L12.4994 7.94001H1.02643C0.752379 7.94845 0.49238 8.06325 0.301513 8.26009C0.110646 8.45692 0.00390625 8.72033 0.00390625 8.99451C0.00390625 9.26869 0.110646 9.5321 0.301513 9.72894C0.49238 9.92577 0.752379 10.0406 1.02643 10.049Z" fill="white"/>
</svg>
