<svg width="40" height="40" viewBox="0 0 40 40" fill="none" xmlns="http://www.w3.org/2000/svg">
<path d="M34.6884 28.2931L31.6683 30.878L27.5225 25.9559C28.2414 25.0937 28.6342 24.0027 28.6313 22.8763C28.6283 21.75 28.2298 20.6611 27.5063 19.8027L26.2068 18.2563L29.4651 14.3871L28.2575 13.3551L27.3354 14.4507L22.5393 10.3459L22.5397 10.3454L23.462 9.24954L22.2544 8.21436L20.0009 10.8918L17.7474 8.21436L16.5398 9.24954L17.4616 10.3449L12.6637 14.4514L12.6634 14.451L11.7411 13.3551L10.5335 14.3871L13.7949 18.2595L12.4954 19.8027C11.7726 20.6612 11.3742 21.7498 11.3707 22.876C11.3672 24.0021 11.7589 25.0931 12.4764 25.9562L12.4768 25.9567L8.33152 30.878L5.31141 28.2931L4.28564 29.5106L11.5341 35.7144L12.5599 34.4969L9.53943 31.9118L13.6839 26.9914L13.684 26.9914C14.413 27.4273 15.2452 27.6569 16.0929 27.656C16.2228 27.656 16.3528 27.6528 16.4859 27.64C17.1053 27.5913 17.7089 27.4191 18.2617 27.1334C18.8145 26.8476 19.3055 26.454 19.7061 25.9754L20.0009 25.6271L20.2925 25.9754C20.6932 26.454 21.1841 26.8476 21.737 27.1334C22.2898 27.4191 22.8934 27.5913 23.5127 27.64C23.6459 27.6528 23.7758 27.656 23.9058 27.656C24.7536 27.6584 25.5862 27.4287 26.3146 26.9914L26.3155 26.9909L30.4604 31.9118L27.44 34.4969L28.4658 35.7144L35.7142 29.5106L34.6884 28.2931ZM13.6903 15.6683L13.6902 15.6682L18.4882 11.5617L18.489 11.5627L18.9613 12.1251L14.8345 17.0262L13.6903 15.6683ZM18.9581 24.3939L18.4985 24.9402C17.9584 25.5813 17.1879 25.9798 16.3563 26.0481C15.5247 26.1164 14.7003 25.8489 14.0644 25.3045C13.4284 24.76 13.0331 23.9832 12.9653 23.145C12.8976 22.3067 13.1629 21.4757 13.703 20.8346L21.5128 11.5627L21.5128 11.5627L26.3089 15.6676L26.3083 15.6683L18.9581 24.3939ZM23.6427 26.0489C23.2307 26.0155 22.8294 25.9003 22.4617 25.71C22.094 25.5198 21.7672 25.2582 21.5001 24.9402L21.0405 24.3939L25.1672 19.4895L26.2988 20.8346C26.7008 21.3132 26.9532 21.9011 27.024 22.5241C27.0949 23.1472 26.981 23.7774 26.6968 24.3352C26.4127 24.8931 25.9709 25.3536 25.4274 25.6586C24.8838 25.9636 24.2628 26.0994 23.6427 26.0489V26.0489Z" fill="#28B0A6"/>
<path d="M20.9819 4.28577H19.0176V7.23219H20.9819V4.28577Z" fill="#28B0A6"/>
<path d="M9.35299 8.10273L8.23242 9.22314L10.4733 11.4644L11.5939 10.3439L9.35299 8.10273Z" fill="#28B0A6"/>
<path d="M30.6441 8.10263L28.4033 10.344L29.524 11.4643L31.7647 9.22296L30.6441 8.10263Z" fill="#28B0A6"/>
<path d="M5.83366 12.6949L5.18945 14.1428L8.08522 15.4312L8.72942 13.9834L5.83366 12.6949Z" fill="#28B0A6"/>
<path d="M25.7066 5.06142L24.418 7.95691L25.8658 8.60127L27.1545 5.70578L25.7066 5.06142Z" fill="#28B0A6"/>
<path d="M14.2998 5.06546L12.8516 5.70886L14.1383 8.60522L15.5865 7.96182L14.2998 5.06546Z" fill="#28B0A6"/>
<path d="M34.1693 12.7119L31.2729 13.9988L31.9164 15.447L34.8127 14.1601L34.1693 12.7119Z" fill="#28B0A6"/>
<path d="M17.0534 22.9465H16.0713V23.9287H17.0534V22.9465Z" fill="#28B0A6"/>
<path d="M19.9999 20H18.0356V21.9643H19.9999V20Z" fill="#28B0A6"/>
<path d="M21.9641 17.0536H20.9819V19.0179H21.9641V17.0536Z" fill="#28B0A6"/>
</svg>
