<svg width="50" height="56" viewBox="0 0 50 56" fill="none" xmlns="http://www.w3.org/2000/svg">
<path d="M25.0157 0.127686H24.9679C21.6869 0.129864 18.4385 0.787955 15.4081 2.06438C12.3776 3.34081 9.62461 5.21058 7.30612 7.56694C4.98764 9.92329 3.14911 12.7201 1.89553 15.7976C0.641942 18.8752 -0.00215716 22.1732 5.42768e-06 25.5034C0.000252218 25.6667 0.0590139 25.8244 0.165333 25.9469C0.271652 26.0695 0.41827 26.1487 0.577845 26.1696C0.737421 26.1906 0.89906 26.1519 1.03262 26.0609C1.16618 25.9698 1.26255 25.8325 1.30374 25.6746C1.47986 24.998 2.10654 23.0634 2.89022 22.2039C3.99055 21.1594 5.33307 20.6056 6.77668 20.6172C8.20636 20.6136 9.57983 21.182 10.5995 22.1992C11.6258 23.3104 12.1684 24.6663 12.1684 26.1199C12.1684 26.2984 12.2382 26.4695 12.3626 26.5957C12.4869 26.7219 12.6555 26.7928 12.8313 26.7928C13.0071 26.7928 13.1758 26.7219 13.3001 26.5957C13.4244 26.4695 13.4942 26.2984 13.4942 26.1199C13.4942 24.6681 14.035 23.3147 15.058 22.2046C16.1518 21.1661 17.4853 20.6173 18.9187 20.6173C19.6312 20.6115 20.3379 20.7482 20.9984 21.0196C21.6589 21.2911 22.2602 21.6919 22.768 22.1993C23.7943 23.3105 24.3369 24.6665 24.3369 26.1199V44.326C24.3369 45.5699 23.8501 46.7629 22.9835 47.6424C22.1169 48.522 20.9416 49.0162 19.7161 49.0162C18.4905 49.0162 17.3152 48.522 16.4486 47.6424C15.582 46.7629 15.0952 45.5699 15.0952 44.326V42.1116C15.0952 41.9331 15.0253 41.762 14.901 41.6358C14.7767 41.5096 14.6081 41.4387 14.4323 41.4387C14.2565 41.4387 14.0878 41.5096 13.9635 41.6358C13.8392 41.762 13.7694 41.9331 13.7694 42.1116V44.326C13.7694 45.9268 14.3959 47.4621 15.5111 48.594C16.6263 49.7259 18.1389 50.3619 19.7161 50.3619C21.2932 50.3619 22.8058 49.7259 23.921 48.594C25.0362 47.4621 25.6628 45.9268 25.6628 44.326V26.1199C25.6628 24.6679 26.2034 23.3148 27.2265 22.2051C28.3203 21.1667 29.6536 20.6179 31.0872 20.6179H31.1138C32.5435 20.6143 33.917 21.1828 34.9366 22.2C35.9629 23.3111 36.5055 24.6665 36.5055 26.1206C36.5055 26.2991 36.5754 26.4702 36.6997 26.5964C36.824 26.7226 36.9926 26.7935 37.1685 26.7935C37.3443 26.7935 37.5129 26.7226 37.6372 26.5964C37.7615 26.4702 37.8314 26.2991 37.8314 26.1206C37.8314 24.6689 38.372 23.3155 39.3952 22.2052C40.489 21.1667 41.8224 20.618 43.2557 20.618H43.2824C44.7121 20.6144 46.0856 21.1827 47.1053 22.1999C47.8914 23.0567 48.5195 24.9971 48.6963 25.6745C48.7375 25.8324 48.8338 25.9697 48.9674 26.0608C49.101 26.1518 49.2626 26.1905 49.4222 26.1695C49.5818 26.1486 49.7284 26.0694 49.8347 25.9468C49.941 25.8242 49.9998 25.6665 50 25.5032V25.4707C49.9958 18.7479 47.3617 12.3019 42.6767 7.5496C37.9917 2.79732 31.6392 0.127744 25.0157 0.127686ZM48.0616 21.268C48.0558 21.2616 48.0497 21.2553 48.0435 21.2491C46.7765 19.9788 45.0662 19.2682 43.2853 19.272H43.2522C41.4716 19.272 39.8184 19.9522 38.4714 21.239C38.4617 21.2483 38.4522 21.258 38.443 21.2678C37.9254 21.8213 37.4952 22.4528 37.168 23.1398C36.841 22.4529 36.4112 21.8214 35.8938 21.268C35.8878 21.2616 35.8817 21.2552 35.8757 21.2491C34.6086 19.9788 32.8983 19.2682 31.1173 19.272H31.0842C29.3035 19.272 27.6503 19.9522 26.3035 21.239C26.2937 21.2483 26.2843 21.2579 26.2752 21.2677C25.7574 21.8211 25.3272 22.4525 24.9998 23.1395C24.6726 22.4525 24.2425 21.821 23.7248 21.2675C23.7189 21.2611 23.7129 21.2548 23.7067 21.2487C22.4397 19.9784 20.7294 19.2678 18.9485 19.2716H18.9154C17.1347 19.2716 15.4816 19.9517 14.1344 21.2386C14.1247 21.2479 14.1152 21.2575 14.106 21.2674C13.5885 21.8209 13.1586 22.4525 12.8314 23.1395C12.5042 22.4524 12.0741 21.821 11.5564 21.2675C11.5505 21.2611 11.5445 21.2548 11.5383 21.2487C10.2714 19.9785 8.56139 19.2678 6.78066 19.2715H6.74751C4.9668 19.2715 3.3136 19.9516 1.96655 21.2385C1.95683 21.2478 1.94733 21.2574 1.93816 21.2674C1.82613 21.3891 1.72132 21.5174 1.62426 21.6517C2.52389 16.0239 5.36592 10.9042 9.64244 7.20767C13.9189 3.51112 19.3512 1.47861 24.9683 1.47341H24.9998C25.0051 1.47273 25.0105 1.47273 25.0157 1.47341C30.6357 1.47473 36.0719 3.50557 40.3517 7.20259C44.6315 10.8996 47.4758 16.0216 48.3756 21.6523C48.2785 21.518 48.1737 21.3896 48.0616 21.268Z" fill="#99A3AD"/>
<path d="M49.6287 34.0793L39.8939 29.2311C39.8032 29.1859 39.7034 29.1624 39.6023 29.1624C39.5011 29.1624 39.4014 29.1859 39.3106 29.2311L29.5758 34.0655C29.4644 34.1209 29.3705 34.2069 29.3048 34.3137C29.2391 34.4206 29.2043 34.544 29.2043 34.67V43.919C29.2043 44.9461 29.4805 46.0925 30.0031 47.2341C30.6726 48.6962 31.6698 49.9592 32.739 50.6977L39.2287 55.1857C39.3387 55.2618 39.4688 55.3025 39.6019 55.3025C39.7351 55.3025 39.8651 55.2618 39.9751 55.1857L46.465 50.6976C48.447 49.3275 49.9997 46.3499 49.9997 43.9189V34.6834C49.9997 34.5576 49.9649 34.4343 49.8993 34.3275C49.8337 34.2207 49.74 34.1347 49.6287 34.0793ZM48.6738 43.9187C48.6738 45.8829 47.3205 48.4779 45.7186 49.5853L39.6019 53.8151L33.4852 49.5853C32.6078 48.9787 31.777 47.915 31.2054 46.6666C30.7699 45.7153 30.53 44.7394 30.53 43.9191V35.0895L39.6009 30.5845L48.6733 35.1027L48.6738 43.9187Z" fill="#99A3AD"/>
<path d="M35.9457 41.4619C35.8196 41.3385 35.6505 41.2707 35.4754 41.2734C35.3002 41.2761 35.1332 41.349 35.0109 41.4763C34.8885 41.6036 34.8208 41.7749 34.8225 41.9527C34.8242 42.1305 34.8952 42.3004 35.0199 42.4253L37.9605 45.3362C38.0844 45.4587 38.2505 45.5274 38.4234 45.5274C38.5964 45.5274 38.7625 45.4587 38.8863 45.3362L44.1839 40.0917C44.3086 39.9668 44.3796 39.7969 44.3813 39.6191C44.383 39.4413 44.3153 39.27 44.193 39.1427C44.0706 39.0154 43.9036 38.9425 43.7285 38.9398C43.5533 38.9371 43.3842 39.0049 43.2581 39.1284L38.4239 43.9146L35.9457 41.4619Z" fill="#99A3AD"/>
</svg>
