<svg width="32" height="32" viewBox="0 0 32 32" fill="none" xmlns="http://www.w3.org/2000/svg">
<path d="M30.214 15.9997C30.2065 18.964 29.2914 21.8383 27.5812 24.2547C25.9535 26.5586 23.5833 28.3747 20.928 29.3428C18.1076 30.371 15.0098 30.4985 12.122 29.6805C9.33914 28.8926 6.86386 27.2491 5.01865 25.0352C1.20821 20.4574 0.758163 13.7334 3.82601 8.64526C6.88636 3.57218 12.9771 0.863033 18.7902 2.04125C24.5884 3.21946 29.1189 7.96235 30.049 13.8009C30.169 14.5363 30.214 15.2718 30.214 15.9997C30.214 16.9678 31.7142 16.9678 31.7142 15.9997C31.7067 12.7578 30.7091 9.54581 28.8189 6.9042C26.9511 4.29262 24.3408 2.30391 21.3255 1.20074C15.1898 -1.03562 8.04149 0.930575 3.90102 5.97364C1.82328 8.49517 0.578143 11.587 0.330614 14.844C0.0830862 18.0635 0.863175 21.343 2.52836 24.1047C4.15605 26.7988 6.60133 29.0051 9.47416 30.3034C12.512 31.6768 15.9174 32.0595 19.1878 31.3991C25.481 30.1233 30.5366 24.8401 31.5117 18.4912C31.6392 17.6657 31.7067 16.8402 31.7142 16.0072C31.7217 15.0316 30.2215 15.0316 30.214 15.9997Z" fill="#28B0A6"/>
<path d="M9.30282 10.3536C10.6982 11.7489 12.0936 13.1442 13.489 14.5395C15.7009 16.7512 17.9127 18.9629 20.1246 21.1747C20.6293 21.6793 21.1415 22.1915 21.6462 22.6961C22.3216 23.3715 23.3756 22.3251 22.6927 21.6497C21.2973 20.2543 19.9019 18.859 18.5065 17.4637C16.2947 15.252 14.0828 13.0403 11.871 10.8286C11.3662 10.3239 10.8541 9.81177 10.3494 9.30709C9.68136 8.62427 8.62739 9.67818 9.30282 10.3536Z" fill="#28B0A6"/>
<path d="M10.3532 22.697C11.7485 21.3016 13.1438 19.9062 14.5391 18.5108C16.7509 16.299 18.9626 14.0871 21.1743 11.8752C21.679 11.3705 22.1911 10.8584 22.6958 10.3537C23.3712 9.67822 22.3247 8.62424 21.6493 9.3071C20.254 10.7025 18.8587 12.0979 17.4634 13.4933C15.2516 15.7052 13.0399 17.917 10.8282 20.1289C10.3235 20.6336 9.81141 21.1457 9.30672 21.6505C8.62391 22.3185 9.67781 23.3725 10.3532 22.697Z" fill="#28B0A6"/>
</svg>
