<svg width="18" height="16" viewBox="0 0 18 16" fill="none" xmlns="http://www.w3.org/2000/svg">
<path d="M7.33562 15.1918C6.58972 15.1919 5.86415 14.9486 5.26912 14.4988L0.585895 10.9467C0.273048 10.7094 0.0672553 10.3576 0.01379 9.96866C-0.0126833 9.77606 -0.000962633 9.58014 0.048283 9.39207C0.0975287 9.204 0.183335 9.02748 0.300802 8.87257C0.418269 8.71766 0.565098 8.58741 0.732904 8.48925C0.90071 8.39109 1.08621 8.32694 1.2788 8.30046C1.66777 8.247 2.06205 8.35024 2.3749 8.58748L7.05812 12.1396C7.10734 12.1768 7.16365 12.2035 7.22359 12.2181C7.28352 12.2327 7.34582 12.2348 7.40662 12.2244C7.46742 12.214 7.52546 12.1913 7.57714 12.1576C7.62882 12.1239 7.67305 12.08 7.70712 12.0286L15.2842 0.665555C15.3915 0.502717 15.53 0.362695 15.6916 0.253539C15.8532 0.144383 16.0348 0.0682441 16.2259 0.0294999C16.4171 -0.00924439 16.614 -0.00983 16.8053 0.0277757C16.9967 0.0653815 17.1788 0.140437 17.341 0.24863C17.5033 0.356822 17.6426 0.496017 17.7509 0.658214C17.8592 0.82041 17.9343 1.00241 17.972 1.19375C18.0098 1.3851 18.0093 1.58201 17.9707 1.77317C17.9321 1.96433 17.856 2.14598 17.747 2.30766L10.1703 13.6729C9.91139 14.0598 9.57635 14.3899 9.18561 14.643C8.79486 14.896 8.35663 15.0668 7.89767 15.1448C7.71197 15.1762 7.52396 15.1919 7.33562 15.1918Z" fill="#28B0A6"/>
</svg>
