<svg width="52" height="54" viewBox="0 0 52 54" fill="none" xmlns="http://www.w3.org/2000/svg">
<path d="M47.9971 40.8774C51.3711 35.5059 52.6762 29.0842 51.6677 22.8163C50.6593 16.5484 47.4065 10.8647 42.5192 6.8308C37.6319 2.79691 31.4458 0.689826 25.1205 0.904586C18.7953 1.11935 12.7653 3.6412 8.16107 7.99736C3.55685 12.3535 0.694579 18.2448 0.110868 24.5668C-0.472843 30.8887 1.26209 37.2072 4.99041 42.3376C8.71873 47.468 14.1844 51.0581 20.3627 52.4347C26.541 53.8113 33.0077 52.8799 38.5504 49.8151L49.3317 52.6147C49.6365 52.693 49.9567 52.6867 50.2582 52.5963C50.5596 52.506 50.8309 52.3351 51.0428 52.1019C51.2548 51.8687 51.3995 51.582 51.4614 51.2726C51.5234 50.9632 51.5002 50.6427 51.3944 50.3455L47.9971 40.8774ZM38.6544 48.0328C38.4348 47.9753 38.2014 48.0065 38.0044 48.1198C32.8405 51.0625 26.7801 52.0034 20.971 50.7642C15.162 49.525 10.0076 46.1917 6.48404 41.3957C2.96052 36.5996 1.31253 30.6739 1.85219 24.7406C2.39186 18.8074 5.08169 13.2787 9.41228 9.2016C13.7429 5.12451 19.4135 2.78212 25.3502 2.61806C31.2869 2.454 37.0775 4.47967 41.6252 8.31141C46.173 12.1432 49.1622 17.5149 50.0266 23.4094C50.891 29.3038 49.5707 35.3116 46.3158 40.2949C46.2423 40.4065 46.1955 40.5336 46.1789 40.6663C46.1624 40.799 46.1766 40.9337 46.2204 41.06L49.7651 50.9367L38.6544 48.0328Z" fill="#99A3AD"/>
<path d="M25.5508 34.2444C24.8947 34.2199 24.2558 34.4575 23.7742 34.9051C23.5477 35.1221 23.369 35.3843 23.2496 35.6748C23.1302 35.9652 23.0727 36.2775 23.0808 36.5916C23.0684 36.9042 23.1231 37.2158 23.2412 37.5053C23.3594 37.7947 23.5382 38.0554 23.7655 38.2695C24.2675 38.6903 24.9009 38.9209 25.5552 38.9209C26.2094 38.9209 26.8428 38.6903 27.3448 38.2695C27.567 38.0555 27.742 37.7972 27.8585 37.5112C27.9749 37.2252 28.0302 36.9178 28.0208 36.609C28.029 36.2949 27.9715 35.9826 27.8521 35.6922C27.7327 35.4017 27.554 35.1395 27.3275 34.9225C27.091 34.697 26.8121 34.5209 26.5071 34.4045C26.202 34.288 25.877 34.2336 25.5508 34.2444Z" fill="#99A3AD"/>
<path d="M30.872 17.7334C29.4476 16.6114 27.6615 16.0543 25.854 16.1684C24.0226 16.0615 22.2183 16.6514 20.8014 17.8203C20.1747 18.3996 19.6812 19.1086 19.355 19.8983C19.0287 20.688 18.8776 21.5394 18.912 22.3935H23.332C23.3148 21.6853 23.5692 20.9976 24.0427 20.4721C24.2777 20.2352 24.5595 20.0502 24.8699 19.929C25.1803 19.8077 25.5126 19.7528 25.8453 19.7678C27.4313 19.7678 28.2287 20.6373 28.2287 22.3761C28.2256 22.9526 28.0668 23.5174 27.7693 24.0106C27.2536 24.7605 26.6351 25.4336 25.932 26.0103C25.117 26.6886 24.4678 27.5451 24.034 28.5142C23.6467 29.6069 23.4702 30.7635 23.514 31.9224H27.414L27.4747 30.9921C27.5919 29.9917 28.0623 29.0664 28.8007 28.3838L30.04 27.2014C30.854 26.4594 31.5393 25.5867 32.068 24.6192C32.4542 23.8572 32.6533 23.0136 32.6487 22.1587C32.6975 21.3352 32.5635 20.511 32.2562 19.7457C31.949 18.9804 31.4762 18.2931 30.872 17.7334Z" fill="#99A3AD"/>
</svg>
