<svg width="17" height="16" viewBox="0 0 17 16" fill="none" xmlns="http://www.w3.org/2000/svg">
<path d="M13.5293 9.95302C13.3092 10.1644 13.208 10.47 13.2582 10.7698L14.0137 14.9127C14.0775 15.2638 13.9279 15.6192 13.6313 15.8221C13.3406 16.0326 12.9539 16.0579 12.6369 15.8895L8.87274 13.9443C8.74185 13.8753 8.59652 13.8382 8.44779 13.834H8.21747C8.13758 13.8458 8.05939 13.8711 7.988 13.9098L4.22299 15.8642C4.03687 15.9568 3.82609 15.9897 3.61957 15.9568C3.11644 15.8625 2.78073 15.3876 2.86317 14.8866L3.61957 10.7437C3.66972 10.4414 3.56858 10.1341 3.34846 9.91934L0.279508 6.97217C0.0228415 6.72545 -0.0663969 6.35494 0.0508878 6.02065C0.164773 5.6872 0.455435 5.44385 0.806439 5.38911L5.03039 4.782C5.35165 4.74916 5.63381 4.55549 5.77829 4.26919L7.63955 0.488388C7.68374 0.404184 7.74068 0.326715 7.80952 0.261035L7.88601 0.202092C7.92596 0.158305 7.97185 0.122097 8.02285 0.0926254L8.11548 0.0589434L8.25997 0H8.61777C8.93733 0.0328399 9.21864 0.222301 9.36567 0.505229L11.2516 4.26919C11.3876 4.54454 11.6519 4.73568 11.957 4.782L16.1809 5.38911C16.5379 5.43964 16.8362 5.68383 16.9543 6.02065C17.0657 6.35831 16.9696 6.72881 16.7079 6.97217L13.5293 9.95302Z" fill="#DCE5EB"/>
</svg>
