<svg width="14" height="25" viewBox="0 0 14 25" fill="none" xmlns="http://www.w3.org/2000/svg">
<path d="M10.0485 4.58928C11.2012 4.58928 12.1357 3.62093 12.1357 2.42641C12.1357 1.2319 11.2012 0.26355 10.0485 0.26355C8.89576 0.26355 7.96129 1.2319 7.96129 2.42641C7.96129 3.62093 8.89576 4.58928 10.0485 4.58928Z" fill="#28B0A6"/>
<path d="M13.2042 10.7432C13.054 10.7274 9.73019 10.3425 9.55026 6.46751C9.67779 6.09887 9.66617 5.70027 9.52341 5.34769C9.47539 5.17086 9.37858 5.01543 9.24615 4.89879C9.17464 4.818 9.09487 4.74337 9.00451 4.67836C8.32891 4.19068 7.39903 4.36243 6.92815 5.06305C5.22792 7.59161 4.95789 12.2592 4.93285 12.783C4.8918 13.6356 5.52558 14.3611 6.34833 14.4039C6.37363 14.4052 6.39867 14.4058 6.42371 14.4058C7.21341 14.4058 7.87223 13.7635 7.91225 12.9371C7.94452 12.2739 8.09786 10.7416 8.44018 9.29542C9.35328 11.1972 11.0375 12.1198 12.3564 12.4417L10.6521 15.4459C10.1833 14.8779 9.58459 14.3852 8.81786 14.0224C8.23907 13.7493 7.5547 14.0128 7.2906 14.6128C7.02625 15.2129 7.28157 15.9215 7.86036 16.1954C8.56564 16.529 9.03911 17.0849 9.35328 17.7361L6.05067 23.558C5.97477 23.6918 6.01814 23.8641 6.14722 23.9427C6.19033 23.9689 6.23758 23.9815 6.2843 23.9815C6.37724 23.9815 6.46785 23.9317 6.51845 23.8427L9.61092 18.3912C10.2326 20.3906 9.72994 22.8507 9.72245 22.8852C9.58434 23.5286 9.97519 24.1674 10.5963 24.3108C10.6807 24.3309 10.7654 24.34 10.848 24.34C11.3765 24.34 11.8525 23.962 11.972 23.4058C12.0219 23.1749 12.9195 18.8278 11.0081 15.9274L12.9252 12.5476C12.9616 12.5522 12.9977 12.5572 13.0325 12.561C13.0617 12.5639 13.0911 12.5653 13.1198 12.5653C13.5674 12.5653 13.9513 12.2132 13.9957 11.7413C14.0432 11.2389 13.6888 10.7922 13.2042 10.7432Z" fill="#28B0A6"/>
<path d="M2.72532 13.5593C2.75578 13.561 2.78573 13.5618 2.81593 13.5618C3.74788 13.5618 4.52623 12.8036 4.57476 11.8285C4.65453 10.2183 5.10967 7.17616 5.98998 5.86693C6.54657 5.03924 6.35037 3.90043 5.55137 3.32393C4.75289 2.74743 3.65391 2.95074 3.09758 3.77844C1.35425 6.37093 1.07957 11.1132 1.05375 11.645C1.00547 12.6519 1.75362 13.5085 2.72532 13.5593Z" fill="#28B0A6"/>
<path d="M5.01873 14.2511C4.38237 14.2511 3.86631 14.7859 3.86631 15.4456C3.86631 17.2032 1.67739 20.3684 0.297538 21.9508C-0.129196 22.4398 -0.092538 23.195 0.379374 23.6375C0.599841 23.844 0.876586 23.9462 1.1523 23.9462C1.46648 23.9462 1.77936 23.8138 2.0068 23.5535C2.43302 23.0655 6.1714 18.6924 6.1714 15.4453C6.1714 14.7859 5.65534 14.2511 5.01873 14.2511Z" fill="#28B0A6"/>
</svg>
