<svg width="20" height="20" viewBox="0 0 20 20" fill="none" xmlns="http://www.w3.org/2000/svg">
<path d="M2.2 3C1.54218 3 1 3.55813 1 4.23529V15.7647C1 16.4419 1.54218 17 2.2 17H17.8C18.4578 17 19 16.4419 19 15.7647V4.23529C19 3.55813 18.4578 3 17.8 3H2.2ZM2.2 3.82353H17.8C18.0281 3.82353 18.2 4.00046 18.2 4.23529V14.0789L14.6938 10.1285C14.6133 10.04 14.493 9.99175 14.375 9.99979C14.2743 10.0054 14.1758 10.0529 14.1063 10.1285L11.2439 13.2554L7.10008 8.488C7.0118 8.38425 6.8704 8.33117 6.73758 8.35289C6.6493 8.36737 6.56649 8.41401 6.50634 8.48157L1.80014 13.6865V4.23524C1.80014 4.00041 1.97202 3.82348 2.20014 3.82348L2.2 3.82353ZM11.4 5.88235C10.5211 5.88235 9.8 6.62466 9.8 7.52941C9.8 8.43416 10.5211 9.17647 11.4 9.17647C12.2789 9.17647 13 8.43416 13 7.52941C13 6.62466 12.2789 5.88235 11.4 5.88235ZM11.4 6.70588C11.8469 6.70588 12.2 7.06939 12.2 7.52941C12.2 7.98944 11.8469 8.35294 11.4 8.35294C10.9531 8.35294 10.6 7.98944 10.6 7.52941C10.6 7.06939 10.9531 6.70588 11.4 6.70588ZM6.7938 9.37597L12.7062 16.1765H2.2C1.97188 16.1765 1.8 15.9995 1.8 15.7647V14.8961L6.7938 9.37597ZM14.3938 11.0166L18.2 15.3014V15.7647C18.2 15.9995 18.0281 16.1764 17.8 16.1764H13.7812L11.7812 13.873L14.3938 11.0166Z" fill="#212529"/>
</svg>
