<svg width="8" height="13" viewBox="0 0 8 13" fill="none" xmlns="http://www.w3.org/2000/svg">
<path d="M3.91931 0.447999C5.02865 0.447999 5.91931 0.751999 6.59131 1.36C7.27398 1.95733 7.61531 2.784 7.61531 3.84C7.61531 4.88533 7.27931 5.68533 6.60731 6.24C5.93531 6.784 5.04465 7.056 3.93531 7.056L3.87131 8.288H1.90331L1.82331 5.568H2.54331C3.47131 5.568 4.18598 5.44533 4.68731 5.2C5.18865 4.95467 5.43931 4.50667 5.43931 3.856C5.43931 3.38667 5.30065 3.01333 5.02331 2.736C4.75665 2.45867 4.38865 2.32 3.91931 2.32C3.42865 2.32 3.04465 2.45333 2.76731 2.72C2.50065 2.98667 2.36731 3.35467 2.36731 3.824H0.255313C0.244646 3.17333 0.383313 2.592 0.671313 2.08C0.959313 1.568 1.38065 1.168 1.93531 0.879999C2.50065 0.591999 3.16198 0.447999 3.91931 0.447999ZM2.87931 12.112C2.47398 12.112 2.13798 11.9893 1.87131 11.744C1.61531 11.488 1.48731 11.1733 1.48731 10.8C1.48731 10.4267 1.61531 10.1173 1.87131 9.872C2.13798 9.616 2.47398 9.488 2.87931 9.488C3.27398 9.488 3.59931 9.616 3.85531 9.872C4.11131 10.1173 4.23931 10.4267 4.23931 10.8C4.23931 11.1733 4.11131 11.488 3.85531 11.744C3.59931 11.9893 3.27398 12.112 2.87931 12.112Z" fill="#BCF0EC"/>
</svg>
