<svg width="14" height="16" viewBox="0 0 14 16" fill="none" xmlns="http://www.w3.org/2000/svg">
<path d="M11.655 11.2993C11.0867 11.3031 10.5414 11.5242 10.131 11.9173L4.58797 8.5843C4.63085 8.39992 4.65431 8.21156 4.65797 8.0223C4.65431 7.83304 4.63085 7.64468 4.58797 7.4603L10.069 4.1603C10.493 4.5751 11.0618 4.80858 11.655 4.8113C11.9664 4.80648 12.2739 4.74029 12.5597 4.61651C12.8456 4.49273 13.1042 4.31379 13.3208 4.08994C13.5374 3.86609 13.7077 3.60172 13.822 3.31196C13.9363 3.0222 13.9924 2.71275 13.987 2.4013C13.9961 2.08931 13.9425 1.77866 13.8295 1.48774C13.7164 1.19683 13.5461 0.931559 13.3286 0.707647C13.1112 0.483736 12.851 0.305734 12.5635 0.184182C12.276 0.0626303 11.9671 0 11.655 0C11.3428 0 11.0339 0.0626303 10.7464 0.184182C10.4589 0.305734 10.1988 0.483736 9.98131 0.707647C9.76386 0.931559 9.59355 1.19683 9.48047 1.48774C9.36739 1.77866 9.31383 2.08931 9.32297 2.4013C9.32662 2.59056 9.35008 2.77892 9.39297 2.9633L3.91197 6.2633C3.48795 5.8485 2.91913 5.61502 2.32597 5.6123C1.70164 5.63433 1.11024 5.89784 0.676362 6.3473C0.242483 6.79676 0 7.39709 0 8.0218C0 8.64651 0.242483 9.24684 0.676362 9.6963C1.11024 10.1458 1.70164 10.4093 2.32597 10.4313C2.91913 10.4286 3.48795 10.1951 3.91197 9.7803L9.44697 13.1213C9.40674 13.2924 9.38594 13.4675 9.38497 13.6433C9.3995 14.0891 9.54497 14.5207 9.80322 14.8843C10.0615 15.2479 10.4211 15.5275 10.8372 15.688C11.2533 15.8486 11.7074 15.8831 12.143 15.7872C12.5786 15.6913 12.9763 15.4693 13.2865 15.1488C13.5967 14.8284 13.8057 14.4237 13.8873 13.9852C13.969 13.5468 13.9198 13.094 13.7458 12.6833C13.5718 12.2726 13.2807 11.9223 12.9089 11.676C12.5371 11.4297 12.101 11.2983 11.655 11.2983V11.2993Z" fill="#1D293F"/>
</svg>
