<svg width="51" height="52" viewBox="0 0 51 52" fill="none" xmlns="http://www.w3.org/2000/svg">
<path d="M51 26.0569C51 11.9289 39.5833 0.47583 25.5 0.47583C11.4167 0.47583 0 11.9289 0 26.0569C0 40.1849 11.4167 51.6379 25.5 51.6379C29.9108 51.6379 34.1604 50.5124 37.9266 48.4C37.9928 48.4321 38.0883 48.4895 38.2244 48.5807C38.2823 48.6195 38.741 48.9376 38.907 49.0479C39.2393 49.2688 39.5554 49.4601 39.9016 49.6434C42.0271 50.7687 44.7903 51.3004 48.7583 51.0338C49.483 50.9851 49.7938 50.0869 49.2549 49.5983C47.8766 48.3484 46.4596 46.762 45.4972 45.3922C45.0172 44.7088 44.6728 44.1109 44.498 43.6599C44.43 43.4842 44.3928 43.3435 44.383 43.2488C48.6135 38.5755 51 32.502 51 26.0569ZM40.6695 48.1838C40.3757 48.0282 40.1053 47.8646 39.8158 47.6722C39.6669 47.5732 39.2115 47.2574 39.1383 47.2083C38.4835 46.7696 38.0509 46.609 37.4761 46.7944C37.3816 46.8249 37.2904 46.8654 37.2024 46.9152C33.6605 48.9194 29.6586 49.9875 25.5 49.9875C12.3253 49.9875 1.64516 39.2734 1.64516 26.0569C1.64516 12.8403 12.3253 2.12622 25.5 2.12622C38.6747 2.12622 49.3548 12.8403 49.3548 26.0569C49.3548 32.125 47.0956 37.837 43.0914 42.2203C41.9783 43.4387 43.8851 46.5383 46.7284 49.4515C44.0844 49.4414 42.173 48.9798 40.6695 48.1838Z" fill="#99A3AD"/>
<path d="M31.9727 35.6478L25.6956 31.2659C25.4132 31.0688 25.0384 31.0688 24.756 31.2659L18.4789 35.6478L20.6934 28.3049C20.793 27.9745 20.6771 27.6169 20.403 27.4084L14.3091 22.7736L21.9548 22.6173C22.2987 22.6103 22.602 22.3892 22.715 22.0632L25.2258 14.8169L27.7366 22.0632C27.8496 22.3892 28.1529 22.6103 28.4969 22.6173L36.1425 22.7736L30.0486 27.4084C29.7745 27.6169 29.6586 27.9745 29.7582 28.3049L31.9727 35.6478ZM25.2258 32.9486L32.9755 38.3584C33.6156 38.8053 34.4585 38.191 34.2327 37.4421L31.4987 28.3766L39.0222 22.6545C39.6437 22.1819 39.3218 21.1879 38.542 21.1719L29.1027 20.979L26.0028 12.0327C25.7467 11.2937 24.7049 11.2937 24.4488 12.0327L21.349 20.979L11.9096 21.1719C11.1299 21.1879 10.8079 22.1819 11.4294 22.6545L18.9529 28.3766L16.219 37.4421C15.9931 38.191 16.836 38.8053 17.4761 38.3584L25.2258 32.9486Z" fill="#99A3AD"/>
</svg>
