<svg width="12" height="12" viewBox="0 0 12 12" fill="none" xmlns="http://www.w3.org/2000/svg">
<path d="M8.9558 7.30209C8.81822 7.443 8.75501 7.64677 8.78635 7.84662L9.25857 10.6085C9.29841 10.8426 9.20492 11.0795 9.01954 11.2148C8.83788 11.3552 8.59619 11.372 8.39806 11.2597L6.04546 9.96297C5.96366 9.91694 5.87283 9.89224 5.77987 9.88943H5.63592C5.58599 9.89729 5.53712 9.91413 5.4925 9.93995L3.13937 11.2429C3.02304 11.3046 2.89131 11.3265 2.76223 11.3046C2.44777 11.2418 2.23796 10.9252 2.28948 10.5911L2.76223 7.82922C2.79357 7.62769 2.73036 7.42279 2.59279 7.27964L0.674692 5.31486C0.514276 5.15038 0.458502 4.90338 0.531805 4.68052C0.602983 4.45821 0.784647 4.29598 1.00402 4.25949L3.64399 3.85475C3.84478 3.83285 4.02113 3.70374 4.11143 3.51287L5.27472 0.99234C5.30234 0.936204 5.33793 0.884558 5.38095 0.840772L5.42876 0.801476C5.45372 0.772285 5.48241 0.748146 5.51428 0.728498L5.57218 0.706044L5.66248 0.666748H5.88611C6.08583 0.688641 6.26165 0.814949 6.35354 1.00357L7.53223 3.51287C7.61722 3.69644 7.78242 3.82387 7.97311 3.85475L10.6131 4.25949C10.8362 4.29317 11.0226 4.45597 11.0965 4.68052C11.166 4.90562 11.106 5.15262 10.9424 5.31486L8.9558 7.30209Z" fill="#F5A623"/>
</svg>
