<svg width="64" height="64" fill="none" xmlns="http://www.w3.org/2000/svg"><path d="M64 32C64 14.327 49.673 0 32 0 14.327 0 0 14.327 0 32c0 17.673 14.327 32 32 32 17.673 0 32-14.327 32-32z" fill="#fff"/><path d="M16 16h32v32H16V16z" fill="#fff"/><path d="M46.723 22.366L26.24 18.031a1.615 1.615 0 0 0-1.909 1.242l-.389 2.5 23.634 5 .39-2.5a1.615 1.615 0 0 0-1.243-1.907zm-8.228 3.656a1.548 1.548 0 0 0-1.91-1.132l-3.715 1.08-8.755-1.94-.963 4.763-6.016 1.748a1.641 1.641 0 0 0-1.08 2l3.39 12.792a1.552 1.552 0 0 0 1.91 1.132l19.444-5.65a1.641 1.641 0 0 0 1.081-2l-.582-2.2 2.181.483a1.542 1.542 0 0 0 1.823-1.242l1.38-6.827-7.856-1.741-.332-1.266zm2.246 6.5l.481-2.38a.636.636 0 0 1 .75-.511l2.273.5a.665.665 0 0 1 .488.785l-.48 2.38a.638.638 0 0 1-.75.511l-2.274-.5a.665.665 0 0 1-.488-.783v-.002zm-23.265-.706l5.382-1.563 12.7-3.69 1.366-.4a.272.272 0 0 1 .25.054.3.3 0 0 1 .103.156l.16.6.5 1.9-20 5.811-.663-2.5a.307.307 0 0 1 .201-.366l.001-.002zm23.19 7.35c.02.077.01.159-.028.228a.282.282 0 0 1-.17.143l-19.449 5.652a.268.268 0 0 1-.074.011.3.3 0 0 1-.279-.22l-1.977-7.461 20-5.811 1.22 4.6.757 2.858z" fill="#1D293F"/><path d="M24.547 39.679a.665.665 0 0 0-.816-.461l-2.378.66a.664.664 0 0 0-.461.816l.66 2.378a.664.664 0 0 0 .816.461l2.378-.66a.665.665 0 0 0 .46-.816l-.66-2.378z" fill="#1D293F"/></svg>