<svg width="33" height="30" viewBox="0 0 33 30" fill="none" xmlns="http://www.w3.org/2000/svg">
<path d="M31.7234 5.36602L11.2404 1.03102C10.8227 0.943834 10.3874 1.02552 10.0297 1.25824C9.672 1.49096 9.42095 1.85579 9.33139 2.27302L8.94238 4.77302L32.5764 9.77302L32.9654 7.27302C33.052 6.85558 32.97 6.42083 32.7374 6.06359C32.5047 5.70635 32.1402 5.4556 31.7234 5.36602V5.36602Z" fill="#1D293F"/>
<path d="M23.4954 9.02202C23.4468 8.82078 23.3583 8.63135 23.2352 8.46487C23.1121 8.2984 22.9569 8.15827 22.7788 8.05275C22.6007 7.94723 22.4032 7.87847 22.1981 7.85052C21.9929 7.82258 21.7843 7.83601 21.5844 7.89003L17.8704 8.97003L9.11542 7.03003L8.15242 11.793L2.13642 13.541C1.73286 13.6703 1.39497 13.9507 1.19347 14.3235C0.991979 14.6963 0.942509 15.1326 1.05542 15.541L4.44542 28.333C4.49408 28.5343 4.58256 28.7237 4.70564 28.8902C4.82872 29.0567 4.98391 29.1968 5.16204 29.3023C5.34016 29.4078 5.53762 29.4766 5.74276 29.5045C5.9479 29.5325 6.15656 29.519 6.35642 29.465L25.8004 23.815C26.204 23.6857 26.5419 23.4053 26.7434 23.0325C26.9449 22.6598 26.9943 22.2235 26.8814 21.815L26.2994 19.615L28.4804 20.098C28.6819 20.1384 28.8893 20.1381 29.0906 20.0972C29.292 20.0564 29.4831 19.9757 29.6529 19.8601C29.8227 19.7444 29.9677 19.596 30.0794 19.4236C30.1911 19.2512 30.2672 19.0582 30.3034 18.856L31.6834 12.029L23.8274 10.288L23.4954 9.02202ZM25.7414 15.522L26.2224 13.142C26.2374 13.0589 26.2688 12.9795 26.3148 12.9087C26.3608 12.8378 26.4204 12.7768 26.4902 12.7292C26.5601 12.6816 26.6387 12.6484 26.7214 12.6316C26.8042 12.6147 26.8896 12.6145 26.9724 12.631L29.2454 13.131C29.4127 13.1731 29.5571 13.2784 29.6481 13.4249C29.7392 13.5713 29.7697 13.7474 29.7334 13.916L29.2524 16.296C29.2374 16.3792 29.206 16.4585 29.1601 16.5294C29.1141 16.6003 29.0544 16.6613 28.9846 16.7088C28.9148 16.7564 28.8362 16.7896 28.7534 16.8065C28.6706 16.8233 28.5853 16.8235 28.5024 16.807L26.2294 16.307C26.0626 16.265 25.9185 16.1599 25.8275 16.0139C25.7365 15.8679 25.7057 15.6923 25.7414 15.524V15.522ZM2.47642 14.816L7.85842 13.253L20.5584 9.56302L21.9244 9.16302C21.9485 9.15631 21.9734 9.15295 21.9984 9.15303C22.0623 9.1552 22.1238 9.17771 22.174 9.21729C22.2242 9.25686 22.2604 9.31142 22.2774 9.37303L22.4374 9.97302L22.9374 11.873L2.93742 17.684L2.27442 15.184C2.25559 15.1089 2.26584 15.0295 2.30311 14.9616C2.34039 14.8937 2.40194 14.8424 2.47542 14.818L2.47642 14.816ZM25.6664 22.166C25.6869 22.2428 25.6769 22.3245 25.6384 22.394C25.6211 22.4282 25.597 22.4585 25.5676 22.4831C25.5382 22.5076 25.5041 22.526 25.4674 22.537L6.01942 28.189C5.99538 28.1961 5.97048 28.1998 5.94542 28.2C5.88155 28.1979 5.82003 28.1753 5.76985 28.1358C5.71966 28.0962 5.68343 28.0416 5.66642 27.98L3.68942 20.519L23.6894 14.708L24.9094 19.308L25.6664 22.166Z" fill="#1D293F"/>
<path d="M9.54659 22.679C9.49899 22.51 9.38647 22.3667 9.2336 22.2803C9.08073 22.194 8.89991 22.1716 8.73059 22.218L6.35259 22.878C6.18344 22.9254 6.03996 23.0379 5.95356 23.1908C5.86716 23.3437 5.84487 23.5247 5.89159 23.694L6.55159 26.072C6.59897 26.2412 6.71144 26.3846 6.86438 26.471C7.01732 26.5575 7.19826 26.5797 7.36759 26.533L9.74559 25.873C9.91459 25.8254 10.0579 25.7129 10.1443 25.56C10.2306 25.4072 10.253 25.2263 10.2066 25.057L9.54659 22.679Z" fill="#1D293F"/>
</svg>
